<svg viewBox="0 0 24 24" xmlns="http://www.w3.org/2000/svg" xmlns:xlink="http://www.w3.org/1999/xlink">
    <defs>
        <path id="a" d="M0 0h23.4v24H0z"/>
    </defs>
    <g fill="none" fill-rule="evenodd">
        <mask id="b" fill="#fff">
            <use xlink:href="#a"/>
        </mask>
        <path d="M16.6 22.2c1.3 0 2.6-.5 3.5-1.5.9-.9 1.5-2.2 1.5-3.5V6.8c0-1.3-.5-2.6-1.5-3.5-.9-.9-2.2-1.5-3.5-1.5H6.8c-1.3 0-2.6.5-3.5 1.5-.9.9-1.5 2.2-1.5 3.5v10.4c0 1.3.5 2.6 1.5 3.5.9.9 2.2 1.5 3.5 1.5h9.8zm0 1.8H6.8C3.1 24 0 20.9 0 17.2V6.8C0 3.1 3.1 0 6.8 0h9.8c3.7 0 6.8 3.1 6.8 6.8v10.4c0 3.7-3.1 6.8-6.8 6.8z" fill="#FFF" mask="url(#b)"/>
        <path d="M11.7 7.7c-2.3 0-4.2 1.9-4.2 4.2 0 2.3 1.9 4.2 4.2 4.2 2.3 0 4.2-1.9 4.2-4.2 0-2.3-1.9-4.2-4.2-4.2m6.4 4.2c0 3.6-2.9 6.4-6.4 6.4-3.5 0-6.4-2.9-6.4-6.4 0-3.6 2.9-6.4 6.4-6.4 3.5 0 6.4 2.9 6.4 6.4M18.3 3.9a1.5 1.5 0 1 1 0 3 1.5 1.5 0 0 1 0-3" fill="#FFF"/>
    </g>
</svg>