<svg xmlns="http://www.w3.org/2000/svg" width="79.02" height="32.7" viewBox="0 0 79.02 32.7"><rect x="8.75" y="2.26" width="15.06" height="2.15" style="fill:#cfdae2"/><rect x="8.75" y="10.94" width="24.84" height="2.15" style="fill:#cfdae2"/><rect x="8.75" y="19.61" width="20.51" height="2.15" style="fill:#cfdae2"/><rect x="8.75" y="28.29" width="24.84" height="2.15" style="fill:#cfdae2"/><polyline points="1 3.44 2.92 5.67 4.74 1" style="fill:none;stroke:#cfdae2;stroke-linecap:round;stroke-linejoin:round;stroke-width:2px"/><polyline points="1 12.12 2.92 14.35 4.74 9.68" style="fill:none;stroke:#cfdae2;stroke-linecap:round;stroke-linejoin:round;stroke-width:2px"/><polyline points="1 20.79 2.92 23.02 4.74 18.35" style="fill:none;stroke:#cfdae2;stroke-linecap:round;stroke-linejoin:round;stroke-width:2px"/><polyline points="1 29.47 2.92 31.7 4.74 27.03" style="fill:none;stroke:#cfdae2;stroke-linecap:round;stroke-linejoin:round;stroke-width:2px"/><rect x="54.18" y="2.26" width="15.06" height="2.15" style="fill:#cfdae2"/><rect x="54.18" y="10.94" width="24.84" height="2.15" style="fill:#cfdae2"/><rect x="54.18" y="19.61" width="20.51" height="2.15" style="fill:#cfdae2"/><rect x="54.18" y="28.29" width="24.84" height="2.15" style="fill:#cfdae2"/><polyline points="46.44 3.44 48.36 5.67 50.17 1" style="fill:none;stroke:#cfdae2;stroke-linecap:round;stroke-linejoin:round;stroke-width:2px"/><polyline points="46.44 12.12 48.36 14.35 50.17 9.68" style="fill:none;stroke:#cfdae2;stroke-linecap:round;stroke-linejoin:round;stroke-width:2px"/><polyline points="46.44 20.79 48.36 23.02 50.17 18.35" style="fill:none;stroke:#cfdae2;stroke-linecap:round;stroke-linejoin:round;stroke-width:2px"/><polyline points="46.44 29.47 48.36 31.7 50.17 27.03" style="fill:none;stroke:#cfdae2;stroke-linecap:round;stroke-linejoin:round;stroke-width:2px"/></svg>