<svg xmlns="http://www.w3.org/2000/svg" id="Layer_1" x="0" y="0" version="1.1" viewBox="0 0 71.8 24" xml:space="preserve">
  <style>
    .st0{fill:#cfdae2}
  </style>
    <path d="M42 0H71.8V2H42zM15.7 3H36.8V7.2H15.7zM55.5 24h-8.7c-2.6 0-4.8-2.1-4.8-4.7 0 0 0 0 0-.1v-8.6c0-2.6 2.1-4.8 4.8-4.8 0 0 0 0 .1 0h8.7c2.6 0 4.8 2.1 4.8 4.7 0 0 0 0 0 0v8.7C60.3 21.9 58.2 24 55.5 24 55.5 24 55.5 24 55.5 24zM46.8 6.7c-2.2 0-4 1.7-4 3.8 0 0 0 .1 0 .1v8.7c0 2.2 1.8 3.9 3.9 3.9 0 0 0 0 .1 0h8.7c2.2 0 4-1.7 4-3.8 0 0 0-.1 0-.1v-8.7c0-2.2-1.7-3.9-3.9-3.9 0 0-.1 0-.1 0L46.8 6.7z" class="st0"/>
    <path d="M52,15h-1.7c-2.7,0-4.8,2.2-4.8,4.9c0,0,0,0,0,0h11.3C56.8,17.2,54.7,15,52,15C52,15,52,15,52,15z" class="st0"/>
    <circle cx="51.2" cy="11.9" r="2.6" class="st0"/>
    <path d="M6.6 5.4C6.4 5.2 6.1 4.9 5.9 4.5 6.4 3 6.5 2 6.1 1.4 5.9 1.1 5.6 1 5.3 1 4.8 1 4.5 1.2 4.4 1.5c-.3.7.2 2 .7 3.1-.1.5-.3 1-.6 1.6l0 0c-.1.3-.3.7-.4 1-1.2.5-2.6 1.2-2.7 2-.1.3 0 .6.3.9.2.1.3.2.5.2.1 0 .2 0 .2 0C3.2 10.1 4 8.9 4.6 7.8c.3-.1.8-.3 1.2-.4.5-.1 1-.3 1.4-.3.8.6 1.4.9 2 .9.4 0 .8-.1 1.1-.4.4-.4.3-.9.2-1C10.1 6.1 9 6 7.4 6.3 7.1 6 6.9 5.7 6.6 5.4zM2.3 9.5c-.1 0-.1 0-.1-.1 0-.2.4-.6 1.3-1C3 9 2.5 9.4 2.3 9.5zM5.1 1.9c0 0 0-.1.1-.1.1 0 .2 0 .2.1.1.2.1.7 0 1.6C5.1 2.8 5 2.1 5.1 1.9zM5.6 6.7c-.1 0-.3.1-.5.1 0-.1.1-.2.1-.3l0 0c.1-.4.3-.7.4-1C5.7 5.7 5.9 5.9 6 6c.2.2.3.3.5.5C6.2 6.5 5.9 6.6 5.6 6.7zM9.7 7C9.6 7.2 9.4 7.2 9.2 7.2 9 7.2 8.6 7.1 8.3 6.9 9.3 6.8 9.8 6.9 9.7 7zM15.7 14H36.8V18.2H15.7zM6.6 16.3c-.2-.2-.4-.5-.6-.9.4-1.5.5-2.6.1-3.1-.2-.3-.5-.4-.8-.4-.4 0-.7.2-.9.5-.3.7.2 2 .7 3.1-.1.5-.3 1-.6 1.6l0 0c-.1.3-.3.7-.4 1-1.2.5-2.6 1.2-2.7 2-.1.3 0 .6.3.9.2.1.3.2.5.2.1 0 .2 0 .2 0C3.2 21 4 19.9 4.6 18.8c.3-.1.8-.3 1.2-.4.5-.1 1-.3 1.4-.3.8.6 1.4.9 2 .9.4 0 .8-.1 1.1-.4.4-.4.3-.9.2-1-.3-.5-1.4-.7-3-.4C7.1 16.9 6.9 16.7 6.6 16.3zM2.3 20.4c-.1 0-.1 0-.1-.1 0-.2.4-.6 1.3-1C3 19.9 2.5 20.3 2.3 20.4zM5.1 12.8c0 0 0-.1.1-.1.1 0 .2 0 .2.1.1.2.1.7 0 1.6C5.1 13.7 5 13.1 5.1 12.8zM5.6 17.6c-.1 0-.3.1-.5.1 0-.1.1-.2.1-.3l0 0c.1-.4.3-.7.4-1 .1.2.3.3.4.5.2.2.3.3.5.5C6.2 17.4 5.9 17.5 5.6 17.6zM9.7 18c-.1.2-.3.2-.5.2-.2 0-.6-.1-.9-.3C9.3 17.7 9.8 17.8 9.7 18z" class="st0"/>
</svg>