<svg xmlns="http://www.w3.org/2000/svg" width="68.78" height="34" viewBox="0 0 68.78 34"><rect x="40.23" width="28.54" height="2" style="fill:#cfdae2"/><rect width="31.26" height="2" style="fill:#cfdae2"/><rect x="0.26" y="8.43" width="5.89" height="1.04" style="fill:#cfdae2"/><rect x="0.13" y="21.67" width="5.89" height="1.04" style="fill:#cfdae2"/><rect x="2.56" y="19.24" width="1.04" height="5.89" style="fill:#cfdae2"/><rect x="10.03" y="21.13" width="21.1" height="2.13" style="fill:#cfdae2"/><rect x="10.03" y="7.11" width="21.1" height="2.13" style="fill:#cfdae2"/><rect x="10.03" y="11.38" width="21.1" height="2.13" style="fill:#cfdae2"/><path d="M53.73,24.55H45a4.78,4.78,0,0,1-4.8-4.7v-8.7A4.8,4.8,0,0,1,45,6.35h8.8a4.78,4.78,0,0,1,4.8,4.7h0v8.7a4.89,4.89,0,0,1-4.9,4.8ZM45,7.25a3.91,3.91,0,0,0-4,3.8v8.8a3.9,3.9,0,0,0,3.9,3.9h8.8a3.91,3.91,0,0,0,4-3.8v-8.8a3.84,3.84,0,0,0-3.9-3.9H45Z" style="fill:#cfdae2"/><path d="M50.23,15.55h-1.7a4.82,4.82,0,0,0-4.8,4.9H55a4.82,4.82,0,0,0-4.8-4.9Z" style="fill:#cfdae2"/><circle cx="49.43" cy="12.45" r="2.6" style="fill:#cfdae2"/><rect x="0.13" y="30.53" width="5.89" height="1.04" style="fill:#cfdae2"/><rect x="2.56" y="28.11" width="1.04" height="5.89" style="fill:#cfdae2"/><rect x="10.03" y="29.99" width="21.1" height="2.13" style="fill:#cfdae2"/></svg>