<svg xmlns="http://www.w3.org/2000/svg" width="68.5" height="33.03" viewBox="0 0 68.5 33.03"><rect width="26.4" height="3.16" style="fill:#cfdae2"/><rect y="7.29" width="6.7" height="2.47" style="fill:#cfdae2"/><rect x="9.55" y="7.29" width="6.7" height="2.47" style="fill:#cfdae2"/><rect x="19.1" y="7.29" width="6.7" height="2.47" style="fill:#cfdae2"/><rect x="28.65" y="7.29" width="6.7" height="2.47" style="fill:#cfdae2"/><line y1="16.53" x2="68.5" y2="16.53" style="fill:none;stroke:#cfdae2;stroke-miterlimit:10;opacity:0.59"/><polygon points="61.43 28.06 61.43 24.2 63.64 26.23 65.99 28.06 63.64 30.09 61.43 32.12 61.43 28.06" style="fill:#cfdae2"/><rect x="55.62" y="27" width="6.06" height="2.32" style="fill:#cfdae2"/><rect y="23.27" width="26.4" height="3.16" style="fill:#cfdae2"/><rect y="30.56" width="6.7" height="2.47" style="fill:#cfdae2"/><rect x="9.55" y="30.56" width="6.7" height="2.47" style="fill:#cfdae2"/><rect x="19.1" y="30.56" width="6.7" height="2.47" style="fill:#cfdae2"/><rect x="28.65" y="30.56" width="6.7" height="2.47" style="fill:#cfdae2"/><polygon points="61.43 4.79 61.43 0.93 63.64 2.96 65.99 4.79 63.64 6.82 61.43 8.86 61.43 4.79" style="fill:#cfdae2"/><rect x="55.62" y="3.73" width="6.06" height="2.32" style="fill:#cfdae2"/></svg>