<?xml version="1.0" encoding="utf-8"?>
<!-- Generator: Adobe Illustrator 22.1.0, SVG Export Plug-In . SVG Version: 6.00 Build 0)  -->
<!DOCTYPE svg PUBLIC "-//W3C//DTD SVG 1.1//EN" "http://www.w3.org/Graphics/SVG/1.1/DTD/svg11.dtd">
<svg version="1.1" id="Layer_1" xmlns="http://www.w3.org/2000/svg" xmlns:xlink="http://www.w3.org/1999/xlink" x="0px" y="0px"
	 viewBox="0 0 70 30" style="enable-background:new 0 0 70 30;" xml:space="preserve">
<style type="text/css">
	.st0{fill:#4D4D4D;}
</style>
<g>
	<g>
		<path class="st0" d="M12.5,25c-3.2,0-6.4-1.2-8.8-3.7c-4.9-4.9-4.9-12.8,0-17.7c4.9-4.9,12.8-4.9,17.7,0c4.9,4.9,4.9,12.8,0,17.7
			l0,0C18.9,23.8,15.7,25,12.5,25z M12.5,1C9.5,1,6.6,2.1,4.4,4.4c-4.5,4.5-4.5,11.8,0,16.3c4.5,4.5,11.8,4.5,16.3,0
			c4.5-4.5,4.5-11.8,0-16.3C18.4,2.1,15.4,1,12.5,1z"/>
	</g>
	<g>
		<polygon class="st0" points="17.4,7.4 5.5,12.5 10.6,14.2 12.3,19.3 		"/>
	</g>
</g>
<g>
	<polygon class="st0" points="52,24.5 27.5,24.5 27.5,0 28.5,0 28.5,23.5 52,23.5 	"/>
</g>
<polygon class="st0" points="50.8,4.1 45.3,6.5 47,7 40.4,13.8 38,11.4 32.8,16.5 33.5,17.2 38,12.8 40.4,15.2 47.8,7.7 48.5,9.6 
	"/>
<g>
	<path class="st0" d="M66.5,13h-10c-0.8,0-1.5-0.7-1.5-1.5v-10C55,0.7,55.7,0,56.5,0h10C67.3,0,68,0.7,68,1.5v10
		C68,12.3,67.3,13,66.5,13z M56.5,1C56.2,1,56,1.2,56,1.5v10c0,0.3,0.2,0.5,0.5,0.5h10c0.3,0,0.5-0.2,0.5-0.5v-10
		C67,1.2,66.8,1,66.5,1H56.5z"/>
</g>
<g>
	<polygon class="st0" points="60.2,9.7 57.4,6.9 58.1,6.1 60.2,8.3 64.9,3.6 65.6,4.4 	"/>
</g>
<g>
	<path class="st0" d="M66.5,27h-10c-0.8,0-1.5-0.7-1.5-1.5v-10c0-0.8,0.7-1.5,1.5-1.5h10c0.8,0,1.5,0.7,1.5,1.5v10
		C68,26.3,67.3,27,66.5,27z M56.5,15c-0.3,0-0.5,0.2-0.5,0.5v10c0,0.3,0.2,0.5,0.5,0.5h10c0.3,0,0.5-0.2,0.5-0.5v-10
		c0-0.3-0.2-0.5-0.5-0.5H56.5z"/>
</g>
</svg>
