<svg viewBox="0 0 75 24" xmlns="http://www.w3.org/2000/svg">
    <g fill="#ffffff" fill-rule="evenodd">
        <path d="M71.616 14.559a1.415 1.415 0 0 1-1.064.453c-.503 0-.857-.292-.857-.73 0-.6.517-.862 1.921-1.023v1.3zm2.262-.307l.015-2.015c.03-1.898-.754-2.964-3.134-2.964-1.3 0-2.44.423-3.164.803l.473 1.65c.798-.394 1.627-.686 2.336-.686.843 0 1.212.321 1.212 1.036v.132c-3.09.088-4.065 1.124-4.065 2.41 0 1.05.916 1.883 2.1 1.883.945 0 1.492-.467 1.98-1.037h.045c.31.745 1.049 1.14 2.542.95l.222-1.607c-.473-.044-.562-.087-.562-.555zM64.594 9.273c-.931 0-1.744.482-2.38 1.212-.325-.789-1.08-1.212-1.937-1.212-.902 0-1.581.394-2.188 1.007v-.949l-2.276.278v6.673h2.276v-4.687c.281-.234.65-.41 1.109-.41.577 0 .946.278.946 1.096v4.001h2.277v-4.658c.266-.234.65-.438 1.109-.438.576 0 .931.277.931 1.095v4.001h2.277v-4.658c0-1.46-.813-2.351-2.144-2.351M52.513 9.273c-.931 0-1.744.482-2.38 1.212-.326-.789-1.08-1.212-1.937-1.212-.902 0-1.581.394-2.188 1.007v-.949l-2.277.278v6.673h2.277v-4.687c.281-.234.65-.41 1.109-.41.576 0 .946.278.946 1.096v4.001h2.277v-4.658c.266-.234.65-.438 1.108-.438.577 0 .932.277.932 1.095v4.001h2.277v-4.658c0-1.46-.814-2.351-2.144-2.351M39.238 14.778c-.931 0-1.434-.73-1.434-1.884 0-1.168.488-1.912 1.42-1.912.93 0 1.434.759 1.434 1.898 0 1.168-.489 1.898-1.42 1.898m.045-5.505c-2.085 0-3.74 1.329-3.74 3.636 0 2.307 1.581 3.592 3.651 3.592 2.055 0 3.725-1.358 3.725-3.636s-1.567-3.592-3.636-3.592"/>
        <path d="M36.369 7.304H33.64l-3.118 4.147h-.015V7.304h-2.383v9.392h2.383v-4.133h.015l3.088 4.133h2.847l-3.791-4.809z"/>
        <path class="komma-emblem" d="M14.066 12.087c0 2.492-1.076 3.97-3.21 4.41-.547.038-.761-.246-.763-.796l.001-.657c1.013 0 1.96-.678 1.96-2.064l-1.148-.002c-.561-.001-.804-.214-.807-.768V9.863c0-.563.217-.804.786-.804h2.395c.57 0 .786.241.786.804v2.224zm10.096 3.378c-.588-4.057-2.785-6.484-6.573-7.298 1.66-1.19 3.124-1.166 4.389.084l1.072-1.06c.409-.412.457-.784.004-1.162-3.317-2.455-6.607-2.64-9.867-.572.324-1.999 1.375-3.001 3.164-3.001V.983c0-.594-.231-.899-.83-.848-4.106.58-6.56 2.75-7.384 6.493-1.206-1.643-1.18-3.089.086-4.34l-1.054-1.04h-.001c-.425-.42-.807-.474-1.195-.02-2.486 3.277-2.672 6.525-.578 9.746-2.025-.319-3.04-1.36-3.04-3.124H.86c-.598.001-.905.23-.855.82.588 4.052 2.785 6.478 6.572 7.29-1.661 1.194-3.124 1.166-4.391-.083L1.132 16.92l.001.001c-.425.42-.48.797-.02 1.18h-.001c3.317 2.457 6.606 2.642 9.866.573-.322 1.997-1.375 2.999-3.163 2.999v1.474h.001c0 .594.231.899.83.849 4.103-.58 6.557-2.75 7.382-6.494 1.207 1.644 1.18 3.09-.086 4.338l1.056 1.043.001-.001c.425.42.807.474 1.195.02 2.484-3.277 2.672-6.526.576-9.744 2.026.317 3.04 1.358 3.04 3.124h1.492v-.001c.6 0 .908-.228.86-.815z"/>
    </g>
</svg>