<?xml version="1.0" encoding="utf-8"?>
<!-- Generator: Adobe Illustrator 20.1.0, SVG Export Plug-In . SVG Version: 6.00 Build 0)  -->
<svg version="1.1" id="Layer_1" xmlns="http://www.w3.org/2000/svg" xmlns:xlink="http://www.w3.org/1999/xlink" x="0px" y="0px"
	 viewBox="0 0 100 85" style="enable-background:new 0 0 100 85;" xml:space="preserve">
<style type="text/css">
	.st0{fill:#FFFFFF;}
	.st1{fill:#0000FF;}
	.st2{fill:#96A6B2;}
	.st3{fill:#1D2433;}
	.st4{fill:#C7D1FF;}
	.st5{fill:#949494;}
</style>
<polygon class="st0" points="12,43.1 7.7,47.4 7.7,20 5.7,20 5.7,47.4 1.4,43.1 0,44.5 6.7,51.2 13.4,44.5 "/>
<polygon class="st1" points="32,25.1 27.7,29.4 27.7,20 25.7,20 25.7,29.4 21.4,25.1 20,26.5 26.7,33.2 33.4,26.5 "/>
<polygon class="st2" points="45.1,21.3 49.4,25.6 40,25.6 40,27.6 49.4,27.6 45.1,31.9 46.5,33.3 53.2,26.6 46.5,19.9 "/>
<polygon class="st3" points="86,21.8 90.3,26.1 80.9,26.1 80.9,28.1 90.3,28.1 86,32.4 87.4,33.8 94.1,27.1 87.4,20.4 "/>
<g>
	
		<rect x="78.8" y="44.1" transform="matrix(0.7071 0.7071 -0.7071 0.7071 56.7157 -46.9239)" class="st3" width="12.3" height="1.8"/>
	
		<rect x="78.8" y="44.1" transform="matrix(0.7071 -0.7071 0.7071 0.7071 -6.9239 73.2843)" class="st3" width="12.3" height="1.8"/>
</g>
<polygon class="st1" points="25.1,36.4 29.4,40.7 20,40.7 20,42.7 29.4,42.7 25.1,47 26.5,48.4 33.2,41.7 26.5,35 "/>
<polygon class="st0" points="45.1,36.4 49.4,40.7 40,40.7 40,42.7 49.4,42.7 45.1,47 46.5,48.4 53.2,41.7 46.5,35 "/>
<polygon class="st4" points="65.1,41.4 69.4,45.7 60,45.7 60,47.7 69.4,47.7 65.1,52 66.5,53.4 73.2,46.7 66.5,40 "/>
<polygon class="st0" points="18.3,0 16.9,1.4 21.2,5.7 0,5.7 0,7.7 21.2,7.7 16.9,12 18.3,13.4 25,6.7 "/>
<path id="White_25_" class="st0" d="M3.8,82l0-10H0.3l0-3.9h3.4l0-2.9c0-3.3,2.1-5.2,5.1-5.2c1.5,0,2.7,0.1,3.1,0.2l0,3.5l-2.1,0
	c-1.7,0-2,0.8-2,1.9l0,2.5h3.9L11.3,72H7.9l0,10H3.8z"/>
<g>
	<g>
		<path class="st0" d="M24.5,82h-4.1l0-14.7h4.1L24.5,82z M22.4,65.3c-1.3,0-2.4-1.2-2.4-2.6c0-1.5,1.1-2.6,2.4-2.6
			c1.3,0,2.4,1.2,2.4,2.6C24.8,64.1,23.7,65.3,22.4,65.3z M40,82h-4.1v-7.1c0-1.7,0-3.9-2.2-3.9c-2.2,0-2.5,1.9-2.5,3.8l0,7.3
			l-4.1,0l0-14.7h4l0,2h0.1c0.6-1.2,1.9-2.4,3.9-2.4c4.2,0,5,3,5,7V82z"/>
	</g>
</g>
<g>
	<path class="st0" d="M55.8,83.3L55.8,83.3c-0.1,0-1.5,0-2.6-1c-0.1-0.1-0.2-0.1-0.3-0.2l-0.8-0.4v-9.5l1.2-1l3.1-5.7
		c0.1-0.1,0.1-0.3,0.2-0.5c0-0.2,0.1-0.3,0-0.5l-0.3-3.9l0.2-0.2c0.5-0.4,1-0.6,1.6-0.6c2,0,3.6,2.7,3.6,5c0,0.3,0,0.6-0.1,0.9
		l-0.4,2.4H67c0.7,0,1.4,0.3,1.9,0.8c0.5,0.5,0.8,1.1,0.8,1.8c0,0.6-0.2,1.1-0.6,1.6c0.5,0.5,0.8,1.2,0.8,1.9c0,0.9-0.5,1.8-1.3,2.2
		c0.1,0.3,0.2,0.7,0.2,1c0,1.1-0.6,2-1.6,2.4c0,0.2,0.1,0.4,0.1,0.6c0,1.4-1.1,2.5-2.5,2.6l0,0L55.8,83.3z M53.2,81.1l0.2,0.1
		c0.2,0.1,0.3,0.2,0.5,0.3c0.8,0.7,1.9,0.7,1.9,0.7l9,0c0.8-0.1,1.5-0.7,1.5-1.6c0-0.3-0.1-0.5-0.2-0.7l-0.3-0.6l0.7-0.1
		c0.8-0.1,1.3-0.8,1.3-1.5c0-0.3-0.1-0.7-0.3-0.9L67,76.1l0.7-0.2c0.7-0.2,1.1-0.8,1.1-1.5c0-0.6-0.3-1.1-0.8-1.4l-0.7-0.4l0.6-0.5
		c0.4-0.3,0.6-0.7,0.6-1.2c0-0.4-0.2-0.8-0.5-1.1c-0.3-0.3-0.8-0.5-1.2-0.5h-6.9l0.6-3.6c0-0.2,0.1-0.5,0.1-0.7c0-1.8-1.2-4-2.5-4
		c-0.3,0-0.5,0.1-0.7,0.2l0.3,3.3c0,0.3,0,0.6-0.1,0.8c-0.1,0.3-0.2,0.5-0.3,0.7L54.1,72l-0.9,0.8V81.1z"/>
	<path class="st0" d="M52.1,84h-6c-0.6,0-1.1-0.5-1.1-1.1V71.6c0-0.6,0.5-1.1,1.1-1.1h6c0.6,0,1.1,0.5,1.1,1.1v11.3
		C53.2,83.5,52.7,84,52.1,84z M46.1,71.5C46.1,71.5,46.1,71.6,46.1,71.5l0,11.4c0,0,0,0,0,0h6c0,0,0,0,0,0V71.6c0,0,0,0,0,0H46.1z"
		/>
</g>
<polygon class="st5" points="66.9,20 66.2,20.7 72.1,26.6 59,26.6 59,27.6 72.1,27.6 66.2,33.6 66.9,34.3 74,27.1 "/>
<polygon class="st1" points="66.9,0 66.2,0.7 72.1,6.6 59,6.6 59,7.6 72.1,7.6 66.2,13.6 66.9,14.3 74,7.1 "/>
<g>
	<g>
		<g>
			<path class="st0" d="M90.7,82h-9.5c-3.5,0-6.3-2.8-6.3-6.3v-9.5c0-3.5,2.8-6.3,6.3-6.3h9.5c3.5,0,6.3,2.8,6.3,6.3v9.5
				C97,79.2,94.2,82,90.7,82z M81.3,61.9c-2.4,0-4.4,2-4.4,4.4v9.5c0,2.4,2,4.4,4.4,4.4h9.5c2.4,0,4.4-2,4.4-4.4v-9.5
				c0-2.4-2-4.4-4.4-4.4H81.3z"/>
		</g>
		<g>
			<path class="st0" d="M86,76.6c-3.1,0-5.6-2.5-5.6-5.6c0-3.1,2.5-5.6,5.6-5.6s5.6,2.5,5.6,5.6C91.6,74.1,89.1,76.6,86,76.6z
				 M86,67.3c-2.1,0-3.7,1.7-3.7,3.7s1.7,3.7,3.7,3.7s3.7-1.7,3.7-3.7S88.1,67.3,86,67.3z"/>
		</g>
		<g>
			<circle class="st0" cx="91.9" cy="65" r="1.4"/>
		</g>
	</g>
</g>
</svg>
