<svg viewBox="0 0 152 50" xmlns="http://www.w3.org/2000/svg">
  <g fill="none" fill-rule="evenodd">
    <path fill="#ffffff" d="M72.78 15.152l-7.427 9.242 7.607 9.697h-5.714l-6.194-8.334h-.03v8.334H56.24V15.15h4.782v8.364h.03l6.255-8.363h5.473zm7.324 15.635c1.9 0 2.897-1.52 2.897-3.955 0-2.372-1.027-3.954-2.928-3.954s-2.897 1.551-2.897 3.985c0 2.404 1.026 3.924 2.928 3.924zm.09-11.468c4.225 0 7.424 2.738 7.424 7.483 0 4.746-3.41 7.575-7.605 7.575-4.225 0-7.455-2.677-7.455-7.484 0-4.806 3.38-7.574 7.636-7.574zm27.01 0c2.715 0 4.376 1.855 4.376 4.897v9.705h-4.648v-8.335c0-1.704-.725-2.282-1.902-2.282-.935 0-1.72.426-2.263.912V33.921h-4.648v-8.335c0-1.704-.755-2.282-1.932-2.282-.935 0-1.69.365-2.263.852v9.765h-4.648V20.018l4.648-.578v1.978c1.238-1.278 2.625-2.1 4.467-2.1 1.75 0 3.289.883 3.953 2.526 1.298-1.522 2.958-2.525 4.86-2.525zm24.663 0c2.715 0 4.376 1.855 4.376 4.897v9.705h-4.648v-8.335c0-1.704-.725-2.282-1.902-2.282-.935 0-1.72.426-2.263.912V33.921h-4.648v-8.335c0-1.704-.754-2.282-1.932-2.282-.935 0-1.69.365-2.263.852v9.765h-4.648V20.018l4.648-.578v1.978c1.238-1.278 2.625-2.1 4.467-2.1 1.75 0 3.289.883 3.953 2.526 1.298-1.522 2.958-2.525 4.86-2.525zm14.335 11.012v-2.707c-2.868.334-3.923.882-3.923 2.129 0 .913.724 1.522 1.75 1.522.935 0 1.69-.397 2.173-.944zm4.617-.638c0 .973.182 1.064 1.147 1.155l-.453 3.347c-3.048.395-4.556-.426-5.19-1.978h-.091c-.996 1.187-2.112 2.16-4.044 2.16-2.415 0-4.286-1.734-4.286-3.924 0-2.677 1.992-4.837 8.3-5.02v-.274c0-1.49-.754-2.16-2.474-2.16-1.45 0-3.14.609-4.77 1.43l-.965-3.437c1.479-.791 3.803-1.674 6.458-1.674 4.86 0 6.459 2.222 6.398 6.176l-.03 4.199z"/>
    <path  fill="#ffffff" d="M49.325 32.219c.099 1.223-.53 1.697-1.754 1.697v.004h-3.047c0-3.68-2.07-5.849-6.207-6.51 4.28 6.705 3.897 13.472-1.176 20.3-.79.946-1.57.833-2.438-.042l-.003.003-2.155-2.173c2.585-2.602 2.64-5.613.175-9.037-1.683 7.8-6.694 12.319-15.069 13.528-1.222.105-1.694-.53-1.694-1.768h-.002v-3.072c3.648 0 5.8-2.086 6.456-6.247-6.656 4.31-13.369 3.925-20.141-1.192l.002-.002c-.939-.798-.827-1.583.04-2.458v-.002l2.15-2.17c2.588 2.602 5.574 2.659 8.964.172C5.696 31.56 1.21 26.504.01 18.062h.001c-.104-1.23.524-1.705 1.744-1.708h3.053c0 3.675 2.072 5.844 6.205 6.508-4.275-6.709-3.894-13.476 1.18-20.304l.001.001c.791-.946 1.57-.833 2.439.042l.002-.002 2.15 2.17c-2.582 2.605-2.635 5.617-.173 9.039C18.294 6.008 23.304 1.49 31.684.28c1.224-.105 1.695.53 1.695 1.767v3.068c-3.652 0-5.798 2.089-6.459 6.254 6.656-4.311 13.373-3.923 20.145 1.19v.001c.924.787.825 1.562-.01 2.422l-2.188 2.206c-2.582-2.603-5.57-2.655-8.96-.174 7.732 1.696 12.218 6.75 13.418 15.204zm-20.61-7.037v-4.635c0-1.171-.443-1.673-1.605-1.673h-4.888c-1.162 0-1.604.502-1.604 1.673v4.891c.005 1.154.5 1.597 1.647 1.6l2.343.004c0 2.887-1.933 4.3-4.001 4.3l-.003 1.368c.004 1.145.442 1.738 1.56 1.66 4.355-.919 6.55-3.997 6.55-9.188z"/>
  </g>
</svg>