<svg xmlns="http://www.w3.org/2000/svg" width="78" height="44" viewBox="0 0 78 44"><title>placeholder-hero</title><rect width="78" height="44" style="fill:#f2f2f2"/><circle cx="55" cy="11.6" r="4" style="fill:#e2e2e2"/><path d="M78,34.91l-10.74-9.8a2,2,0,0,0-2.8.08l0,0a2.21,2.21,0,0,0-.41.6l-3,7.3L44,19.61a2.06,2.06,0,0,0-2.81.19h0c-.1.1-.21.3-.31.4L38.9,24l-4.7-7.6a2.06,2.06,0,0,0-2.71-.7,1.25,1.25,0,0,0-.52.5L19.08,31l-4-5.3a1.94,1.94,0,0,0-2.63-.46l-.08.06-.11.1L0,35.61V44H78Z" style="fill:#e2e2e2"/></svg>