<svg xmlns="http://www.w3.org/2000/svg" viewBox="0 0 264 280" preserveAspectRatio="xMinYMin">
    <path fill="#f2f2f2" d="M0,0H264V280H0Z"/>
    <path fill="#e2e2e2" d="M155.65,189.66h-47.3a26,26,0,0,1-26.08-25.93h0V116.61A26,26,0,0,1,108.2,90.53h47.45a26,26,0,0,1,26.08,25.93h0v47.38A26,26,0,0,1,155.65,189.66ZM108.35,95.2A21.23,21.23,0,0,0,87,116.33v47.46a21.23,21.23,0,0,0,21.12,21.35h47.52A21.23,21.23,0,0,0,177,164h0V116.54A21.23,21.23,0,0,0,155.86,95.2H108.35Z"/>
    <path fill="#e2e2e2" d="M143,126.27l-20.9,29.2L105.51,138.6a3.64,3.64,0,0,0-4.73-.26L84.63,151.19v11.87a23.83,23.83,0,0,0,23.74,23.75h47.3a23.54,23.54,0,0,0,23.22-19.21l-30.17-41.26a3.47,3.47,0,0,0-4.84-.82l-.15.11C143.48,125.56,143.29,125.81,143,126.27Z"/>
    <circle cx="115.3" cy="115.6" r="9.5" fill="#e2e2e2"/>
</svg>