<svg xmlns="http://www.w3.org/2000/svg" width="840" height="840" viewBox="0 0 840 840"><title>placeholder-usp</title><rect width="840" height="840" style="fill:#f2f2f2;fill-opacity:0"/><path d="M531.18,653.08H309.29a122.31,122.31,0,0,1-122.65-122V309.65A122.3,122.3,0,0,1,308.59,187H531.18A122.3,122.3,0,0,1,653.83,309V531.54C653.83,598.44,599.2,653.08,531.18,653.08ZM309.29,209.3a99.93,99.93,0,0,0-100.35,99.51V531.54a99.93,99.93,0,0,0,99.51,100.35H531.18a99.93,99.93,0,0,0,100.35-99.51V309.65A99.93,99.93,0,0,0,532,209.3H309.29Z" style="fill:#e2e2e2"/><path d="M473.2,355.37,375.08,492.51,297,413.35c-5.58-5.58-15.61-6.69-22.3-1.12l-75.8,60.21v55.75c0,61.33,50.18,111.51,111.51,111.51H532.29a111.15,111.15,0,0,0,109.28-90.32L500,355.37c-5.58-7.81-15.61-8.92-23.42-3.35C475.43,352,474.31,353.14,473.2,355.37Z" style="fill:#e2e2e2"/><circle cx="420.24" cy="305.19" r="44.6" style="fill:#e2e2e2"/></svg>