<svg xmlns="http://www.w3.org/2000/svg" width="444" height="296" viewBox="0 0 444 296"><title>placeholder-card</title><rect width="444" height="296" style="fill:#f2f2f2"/><path d="M247,200.5H197a27.49,27.49,0,0,1-27.57-27.41V123.27A27.49,27.49,0,0,1,196.84,95.7H247a27.49,27.49,0,0,1,27.57,27.41V173.2A27.48,27.48,0,0,1,247,200.5Zm-50-99.86A22.45,22.45,0,0,0,174.44,123v50.15a22.45,22.45,0,0,0,22.33,22.57H247a22.45,22.45,0,0,0,22.56-22.34V123.2a22.45,22.45,0,0,0-22.34-22.56H197Z" style="fill:#e2e2e2"/><path d="M233.66,133.49l-22.09,30.86L194,146.52a3.85,3.85,0,0,0-5-.27l-17.08,13.58v12.55a25.19,25.19,0,0,0,25.1,25.1h50a24.87,24.87,0,0,0,24.55-20.3l-31.89-43.62a3.68,3.68,0,0,0-5.12-.87l-.16.12C234.14,132.74,233.93,133,233.66,133.49Z" style="fill:#e2e2e2"/><circle cx="204.3" cy="122.17" r="10.01" style="fill:#e2e2e2"/></svg>